<svg width="80" height="80" viewBox="0 0 80 80" fill="none" xmlns="http://www.w3.org/2000/svg">
<path d="M30.5333 36.2333C30.2 36.2 29.8 36.2 29.4333 36.2333C21.5 35.9667 15.2 29.4667 15.2 21.4667C15.2 13.3 21.8 6.66666 30 6.66666C38.1667 6.66666 44.8 13.3 44.8 21.4667C44.7667 29.4667 38.4667 35.9667 30.5333 36.2333Z" stroke="white" stroke-width="1.5" stroke-linecap="round" stroke-linejoin="round"/>
<path d="M54.7 13.3333C61.1667 13.3333 66.3667 18.5667 66.3667 25C66.3667 31.3 61.3667 36.4333 55.1333 36.6667C54.8667 36.6333 54.5667 36.6333 54.2667 36.6667" stroke="white" stroke-width="1.5" stroke-linecap="round" stroke-linejoin="round"/>
<path d="M13.8667 48.5333C5.8 53.9333 5.8 62.7333 13.8667 68.1C23.0333 74.2333 38.0667 74.2333 47.2333 68.1C55.3 62.7 55.3 53.9 47.2333 48.5333C38.1 42.4333 23.0667 42.4333 13.8667 48.5333Z" stroke="white" stroke-width="1.5" stroke-linecap="round" stroke-linejoin="round"/>
<path d="M61.1333 66.6667C63.5333 66.1667 65.8 65.2 67.6667 63.7667C72.8667 59.8667 72.8667 53.4333 67.6667 49.5333C65.8333 48.1333 63.6 47.2 61.2333 46.6667" stroke="white" stroke-width="1.5" stroke-linecap="round" stroke-linejoin="round"/>
</svg>
